HIERARCHY
ROOT Hips
{
  OFFSET 49.8178 54.5723 -9.41887
  CHANNELS 6 Xposition Yposition Zposition Zrotation Xrotation Yrotation
  JOINT spine
  {
    OFFSET 0 5.95438 0.342407
    CHANNELS 3 Zrotation Xrotation Yrotation
    JOINT spine1
    {
      OFFSET 0 8.85602 0
      CHANNELS 3 Zrotation Xrotation Yrotation
      JOINT spine2
      {
        OFFSET 0 8.48567 0
        CHANNELS 3 Zrotation Xrotation Yrotation
        JOINT Neck
        {
          OFFSET 0 21.7863 1.0387
          CHANNELS 3 Zrotation Xrotation Yrotation
          JOINT Head
          {
            OFFSET 0 6.5822 0
            CHANNELS 3 Zrotation Xrotation Yrotation
            End Site
            {
              OFFSET 0 15.9326 -5.25436
            }
          }
        }
        JOINT RightShoulder
        {
          OFFSET -3.57307 9.16386 -0.497525
          CHANNELS 3 Zrotation Xrotation Yrotation
          JOINT RightArm
          {
            OFFSET 0 12.0192 0
            CHANNELS 3 Zrotation Xrotation Yrotation
            JOINT RightArmRoll
            {
              OFFSET 0 6.06755 0
              CHANNELS 3 Zrotation Xrotation Yrotation
              JOINT RightForeArm
              {
                OFFSET 0 17.6726 0
                CHANNELS 3 Zrotation Xrotation Yrotation
                JOINT RightForeArmRoll
                {
                  OFFSET 0 6.80873 0
                  CHANNELS 3 Zrotation Xrotation Yrotation
                  JOINT RightHand
                  {
                    OFFSET 0 13.6636 0
                    CHANNELS 3 Zrotation Xrotation Yrotation
                    End Site
                    {
                      OFFSET 0 0 0
                    }
                  }
                }
              }
            }
          }
        }
        JOINT LeftShoulder
        {
          OFFSET 3.57307 9.16386 -0.497525
          CHANNELS 3 Zrotation Xrotation Yrotation
          JOINT LeftArm
          {
            OFFSET 0 12.0192 0
            CHANNELS 3 Zrotation Xrotation Yrotation
            JOINT LeftArmRoll
            {
              OFFSET 0 6.06755 0
              CHANNELS 3 Zrotation Xrotation Yrotation
              JOINT LeftForeArm
              {
                OFFSET 0 17.6726 0
                CHANNELS 3 Zrotation Xrotation Yrotation
                JOINT LeftForeArmRoll
                {
                  OFFSET 0 6.80872 0
                  CHANNELS 3 Zrotation Xrotation Yrotation
                  JOINT LeftHand
                  {
                    OFFSET 0 13.6636 0
                    CHANNELS 3 Zrotation Xrotation Yrotation
                    End Site
                    {
                      OFFSET 0 0 0
                    }
                  }
                }
              }
            }
          }
        }
      }
    }
  }
  JOINT RightUpLeg
  {
    OFFSET -5.27774 -0.967797 -0.811858
    CHANNELS 3 Zrotation Xrotation Yrotation
    JOINT RightUpLegRoll
    {
      OFFSET 0 16.0214 0
      CHANNELS 3 Zrotation Xrotation Yrotation
      JOINT RightLeg
      {
        OFFSET 0 -19.8401 0
        CHANNELS 3 Zrotation Xrotation Yrotation
        JOINT RightLegRoll
        {
          OFFSET 0 19.905 0
          CHANNELS 3 Zrotation Xrotation Yrotation
          JOINT RightFoot
          {
            OFFSET 0 16.5675 0
            CHANNELS 3 Zrotation Xrotation Yrotation
            JOINT RightToeBase
            {
              OFFSET 0 13.8496 0
              CHANNELS 3 Zrotation Xrotation Yrotation
              End Site
              {
                OFFSET 0.00587034 6.70727 -0.773117
              }
            }
          }
        }
      }
    }
  }
  JOINT LeftUpLeg
  {
    OFFSET 5.27774 -0.967797 -0.811858
    CHANNELS 3 Zrotation Xrotation Yrotation
    JOINT LeftUpLegRoll
    {
      OFFSET 0 16.0215 0
      CHANNELS 3 Zrotation Xrotation Yrotation
      JOINT LeftLeg
      {
        OFFSET 0 19.84 0
        CHANNELS 3 Zrotation Xrotation Yrotation
        JOINT LeftLegRoll
        {
          OFFSET 0 20.089 0
          CHANNELS 3 Zrotation Xrotation Yrotation
          JOINT LeftFoot
          {
            OFFSET 0 16.3835 0
            CHANNELS 3 Zrotation Xrotation Yrotation
            JOINT LeftToeBase
            {
              OFFSET 0 13.8496 0
              CHANNELS 3 Zrotation Xrotation Yrotation
              End Site
              {
                OFFSET -0.0263083 6.70728 -0.773116
              }
            }
          }
        }
      }
    }
  }
}
MOTION
Frames: 5
Frame Time: 0.00208333
49.3686 57.7328 -6.40426 -5.72328 24.8298 7.96559 0.730352 -0.703454 0.0194592 1.46194 2.59518 -0.0470941 1.46416 4.23992 -0.0715591 3.71066 37.8302 -4.47321 -5.09923 6.13363 -2.67043 77.3699 1.33253 -1.49151 95.9985 28.9413 -3.67172 1.22324e-008 2.77738e-006 -1.05894e-006 -4.10488 30.0735 -1.11893 -3.37581e-006 -2.11473e-006 -3 8.03007 -4.95137 0.697635 -58.3058 -3.87758 2.30279 -116.345 39.1075 24.1579 1.07344e-014 -4.77083e-015 6.36111e-015 3.81915 15.7687 1.57725 4.10384e-006 1.37854e-006 3 -8.0301 -4.95139 -0.697635 -3.24098 75.7107 -178.457 180 7.01624e-015 179.34 -170.833 75.9977 168.635 -2.45432e-006 2.78366e-007 1.73045 -20.2012 69.2831 20.6857 8.13649 25.2327 -3.48773 19.9512 74.5967 165.413 4.54188e-006 -4.6773e-006 -0.710884 18.7914 -73.8655 17.5377 4.84646e-006 3.1308e-006 -1.50801 16.6459 63.5331 -16.3564 -8.13649 25.2327 3.48774 
49.3797 57.7043 -6.41197 -5.70684 24.7182 7.96686 0.731389 -0.707775 0.0191062 1.464 2.58653 -0.0477598 1.46623 4.23127 -0.0723313 3.65621 37.787 -4.45317 -5.01761 6.1926 -2.67546 77.3312 1.31365 -1.49471 96.0837 28.9151 -3.75765 1.22324e-008 2.77738e-006 -1.05894e-006 -4.10599 30.1105 -1.11721 -3.37581e-006 -2.11473e-006 -3 8.03007 -4.95137 0.697635 -58.3348 -3.86421 2.29648 -116.412 39.2206 24.1965 -7.95139e-016 -7.95139e-016 3.18055e-015 3.81368 15.4419 1.58641 4.10384e-006 1.37854e-006 3 -8.0301 -4.95139 -0.697635 -3.20441 75.7784 -178.478 180 7.01624e-015 179.337 -170.815 76.0307 168.617 -2.45432e-006 2.78366e-007 1.7314 -20.1997 69.2813 20.684 8.13649 25.2327 -3.48773 20.0774 74.6727 165.295 4.54188e-006 -4.6773e-006 -0.712994 18.8334 -73.872 17.5705 4.84646e-006 3.1308e-006 -1.50824 16.6435 63.5283 -16.353 -8.13649 25.2327 3.48774 
49.3911 57.6652 -6.4361 -5.68855 24.6041 7.96511 0.731438 -0.711238 0.018708 1.46409 2.5796 -0.0483828 1.46633 4.22434 -0.0730253 3.61672 37.7423 -4.44062 -4.95078 6.24455 -2.68089 77.2976 1.29555 -1.49822 96.1658 28.8948 -3.84035 1.22324e-008 2.77738e-006 -1.05894e-006 -4.1067 30.1326 -1.11613 -3.37581e-006 -2.11473e-006 -3 8.03007 -4.95137 0.697635 -58.353 -3.85628 2.29279 -116.493 39.3376 24.2479 1.31198e-014 -6.36111e-015 -0 3.80809 15.1062 1.59575 4.10384e-006 1.37854e-006 3 -8.0301 -4.95139 -0.697635 -3.17816 75.8475 -178.488 180 7.01624e-015 179.335 -170.793 76.0646 168.595 -2.45432e-006 2.78366e-007 1.73236 -20.1979 69.2791 20.6818 8.13649 25.2327 -3.48773 20.1995 74.7526 165.179 4.54188e-006 -4.6773e-006 -0.715173 18.8728 -73.8793 17.6018 4.84646e-006 3.1308e-006 -1.50861 16.6414 63.524 -16.3499 -8.13649 25.2327 3.48774 
49.3692 57.6789 -6.44273 -5.66891 24.4885 7.96125 0.730705 -0.714187 0.0182532 1.46262 2.5737 -0.0489881 1.46485 4.21844 -0.0736759 3.58898 37.6947 -4.43375 -4.89501 6.29255 -2.6864 77.2669 1.27732 -1.50215 96.247 28.878 -3.92238 1.22325e-008 2.77738e-006 -1.05894e-006 -4.1072 30.1474 -1.11538 -3.37581e-006 -2.11473e-006 -3 8.03007 -4.95137 0.697635 -58.3578 -3.85276 2.29083 -116.59 39.4576 24.3151 -1.78906e-014 5.56597e-015 -3.18055e-015 3.80234 14.7594 1.60541 4.10384e-006 1.37854e-006 3 -8.0301 -4.95139 -0.697635 -3.15882 75.9173 -178.49 180 7.01623e-015 179.332 -170.768 76.0997 168.571 -2.45432e-006 2.78366e-007 1.73329 -20.1958 69.2767 20.6794 8.13649 25.2327 -3.48773 20.3209 74.8354 165.063 4.54188e-006 -4.6773e-006 -0.717388 18.9105 -73.8871 17.632 4.84646e-006 3.1308e-006 -1.50911 16.6395 63.52 -16.3471 -8.13649 25.2327 3.48774 
49.3672 57.6397 -6.46241 -5.64804 24.3715 7.95558 0.729269 -0.716699 0.0177502 1.45974 2.56867 -0.049577 1.46197 4.21342 -0.0742868 3.57153 37.6446 -4.43187 -4.84905 6.33688 -2.69201 77.239 1.25906 -1.50645 96.3273 28.8644 -4.00355 1.22325e-008 2.77738e-006 -1.05894e-006 -4.10751 30.1547 -1.11495 -3.37581e-006 -2.11473e-006 -3 8.03007 -4.95137 0.697635 -58.3518 -3.85301 2.2904 -116.701 39.5804 24.3954 -1.82882e-014 3.18055e-015 3.18055e-015 3.79646 14.4026 1.61534 4.10384e-006 1.37854e-006 3 -8.0301 -4.95139 -0.697635 -3.14545 75.9877 -178.486 180 7.01623e-015 179.329 -170.742 76.1359 168.545 -2.45432e-006 2.78366e-007 1.73421 -20.1934 69.274 20.6767 8.13649 25.2327 -3.48773 20.4419 74.9208 164.946 4.54188e-006 -4.6773e-006 -0.719639 18.9462 -73.8954 17.6609 4.84646e-006 3.1308e-006 -1.50972 16.6377 63.5164 -16.3445 -8.13649 25.2327 3.48774 
